<svg xmlns="http://www.w3.org/2000/svg" viewBox="0 0 1440 320"><path fill="#6D161F" fill-opacity="1" d="M0,64L30,90.7C60,117,120,171,180,170.7C240,171,300,117,360,96C420,75,480,85,540,80C600,75,660,53,720,64C780,75,840,117,900,144C960,171,1020,181,1080,186.7C1140,192,1200,192,1260,176C1320,160,1380,128,1410,112L1440,96L1440,0L1410,0C1380,0,1320,0,1260,0C1200,0,1140,0,1080,0C1020,0,960,0,900,0C840,0,780,0,720,0C660,0,600,0,540,0C480,0,420,0,360,0C300,0,240,0,180,0C120,0,60,0,30,0L0,0Z"></path></svg>